<svg width="32" height="32" viewBox="0 0 32 32" fill="none" xmlns="http://www.w3.org/2000/svg">
<g id="Chats icon">
<path id="Vector" d="M29.0078 23.3449C29.6988 21.9117 30.0378 20.3344 29.9968 18.7439C29.9557 17.1534 29.5357 15.5956 28.7718 14.2001C28.0078 12.8045 26.9218 11.6113 25.6041 10.7197C24.2864 9.82809 22.7749 9.26377 21.1953 9.07361C20.6697 7.85156 19.9056 6.74667 18.9476 5.82363C17.9897 4.90059 16.8572 4.17796 15.6165 3.69806C14.3758 3.21815 13.0518 2.99061 11.7221 3.02877C10.3924 3.06693 9.08361 3.37002 7.87247 3.92029C6.66133 4.47055 5.57216 5.25694 4.66873 6.23339C3.76531 7.20985 3.06578 8.35674 2.61113 9.60692C2.15647 10.8571 1.95582 12.1854 2.02093 13.5141C2.08604 14.8428 2.4156 16.1451 2.99031 17.3449L2.08156 20.4336C1.97995 20.7784 1.97316 21.1442 2.06189 21.4926C2.15062 21.8409 2.3316 22.1589 2.58579 22.4131C2.83997 22.6673 3.15797 22.8483 3.50632 22.937C3.85467 23.0258 4.22049 23.019 4.56531 22.9174L7.65406 22.0086C8.64585 22.4851 9.70916 22.7955 10.8016 22.9274C11.3323 24.1709 12.1097 25.2938 13.0867 26.2284C14.0637 27.1629 15.2201 27.8897 16.486 28.3646C17.7518 28.8396 19.1008 29.0529 20.4515 28.9917C21.8021 28.9305 23.1263 28.5961 24.3441 28.0086L27.4328 28.9174C27.7775 29.0188 28.1432 29.0256 28.4914 28.9369C28.8396 28.8482 29.1574 28.6674 29.4116 28.4134C29.6657 28.1594 29.8467 27.8416 29.9356 27.4934C30.0244 27.1453 30.0179 26.7796 29.9166 26.4349L29.0078 23.3449ZM7.74906 19.9374C7.65349 19.9376 7.55842 19.951 7.46656 19.9774L3.99906 20.9999L5.02031 17.5299C5.09294 17.2792 5.06468 17.01 4.94156 16.7799C4.03694 15.0881 3.7704 13.1276 4.19051 11.2557C4.61063 9.38381 5.68942 7.72523 7.23024 6.58229C8.77106 5.43935 10.6713 4.88818 12.5845 5.02923C14.4978 5.17029 16.2966 5.99418 17.6532 7.35072C19.0097 8.70727 19.8336 10.5061 19.9747 12.4194C20.1157 14.3326 19.5646 16.2329 18.4216 17.7737C17.2787 19.3145 15.6201 20.3933 13.7482 20.8134C11.8763 21.2335 9.91583 20.967 8.22406 20.0624C8.07858 19.9818 7.91532 19.9389 7.74906 19.9374ZM26.9728 23.5286L27.9991 26.9999L24.5291 25.9786C24.2784 25.906 24.0092 25.9342 23.7791 26.0574C21.9376 27.0406 19.7849 27.2658 17.7798 26.6849C15.7747 26.1039 14.0759 24.7628 13.0453 22.9474C14.4145 22.8044 15.7394 22.3801 16.9369 21.701C18.1344 21.0219 19.1787 20.1026 20.0041 19.0009C20.8296 17.8991 21.4184 16.6387 21.7338 15.2987C22.0491 13.9586 22.0841 12.5678 21.8366 11.2136C23.0295 11.4948 24.142 12.0464 25.088 12.8257C26.0339 13.6051 26.7882 14.5914 27.2925 15.7085C27.7969 16.8256 28.0378 18.0437 27.9966 19.2687C27.9555 20.4937 27.6334 21.6928 27.0553 22.7736C26.9308 23.0051 26.9026 23.2764 26.9766 23.5286H26.9728Z" fill="white"/>
</g>
</svg>
